<svg width="88" height="88" viewBox="0 0 88 88" fill="none" xmlns="http://www.w3.org/2000/svg">
<path d="M30.9375 59.8125C30.9375 58.3875 29.7844 57.2344 28.3594 57.2344H18.0469C16.6219 57.2344 15.4688 58.3875 15.4688 59.8125V75.1094H30.9375V59.8125Z" fill="#6F77E6"/>
<path d="M51.7344 49.5V75.1094H36.2656V49.5C36.2656 48.0561 37.3998 46.9219 38.8438 46.9219H49.1562C50.6002 46.9219 51.7344 48.0561 51.7344 49.5Z" fill="#6ECD24"/>
<path d="M72.3594 39.1875C72.3594 37.7625 71.2063 36.6094 69.7812 36.6094H59.4688C58.0437 36.6094 56.8906 37.7625 56.8906 39.1875V75.1094H72.3594V39.1875Z" fill="#FE9923"/>
<path d="M72 39.5446C72 38.1381 70.8818 37 69.5 37H59.5C58.1182 37 57 38.1381 57 39.5446V75H72V39.5446Z" fill="#DE861F"/>
<path d="M51.7344 49.5V75.1094H44V46.9219H49.1562C50.6002 46.9219 51.7344 48.0561 51.7344 49.5Z" fill="#66BD21"/>
<path d="M77.5156 75.1094C77.5156 76.553 76.3814 77.6875 74.9375 77.6875H12.8906C11.4467 77.6875 10.3125 76.553 10.3125 75.1094C10.3125 73.6655 11.4467 72.5312 12.8906 72.5312H74.9375C76.3814 72.5312 77.5156 73.6655 77.5156 75.1094Z" fill="#004A7B"/>
<path d="M77.5156 75.1094C77.5156 76.553 76.3814 77.6875 74.9375 77.6875H44V72.5312H74.9375C76.3814 72.5312 77.5156 73.6655 77.5156 75.1094Z" fill="#00345B"/>
<path d="M22.5633 32.565C21.7707 32.8062 21.3238 33.6442 21.565 34.4367C21.8062 35.2293 22.6442 35.6762 23.4367 35.435L22.5633 32.565ZM70.3235 20.7059C70.7134 19.9749 70.4368 19.0663 69.7059 18.6765L57.7941 12.3235C57.0632 11.9337 56.1546 12.2102 55.7647 12.9412C55.3749 13.6721 55.6514 14.5807 56.3824 14.9706L66.9706 20.6176L61.3235 31.2059C60.9337 31.9368 61.2102 32.8454 61.9412 33.2353C62.6721 33.6251 63.5807 33.3486 63.9706 32.6176L70.3235 20.7059ZM23.4367 35.435L69.4367 21.435L68.5633 18.565L22.5633 32.565L23.4367 35.435Z" fill="#004A7B"/>
</svg>
