<svg width="24" height="24" viewBox="0 0 24 24" fill="none" xmlns="http://www.w3.org/2000/svg">
<path d="M4.6875 3.6875C4.6875 2.8587 5.01674 2.06384 5.60279 1.47779C6.18884 0.89174 6.9837 0.5625 7.8125 0.5625C8.6413 0.5625 9.43616 0.89174 10.0222 1.47779C10.6083 2.06384 10.9375 2.8587 10.9375 3.6875C10.9375 4.5163 10.6083 5.31116 10.0222 5.89721C9.43616 6.48326 8.6413 6.8125 7.8125 6.8125C6.9837 6.8125 6.18884 6.48326 5.60279 5.89721C5.01674 5.31116 4.6875 4.5163 4.6875 3.6875ZM7.8125 2.125C7.3981 2.125 7.00067 2.28962 6.70765 2.58265C6.41462 2.87567 6.25 3.2731 6.25 3.6875C6.25 4.1019 6.41462 4.49933 6.70765 4.79235C7.00067 5.08538 7.3981 5.25 7.8125 5.25C8.2269 5.25 8.62433 5.08538 8.91735 4.79235C9.21038 4.49933 9.375 4.1019 9.375 3.6875C9.375 3.2731 9.21038 2.87567 8.91735 2.58265C8.62433 2.28962 8.2269 2.125 7.8125 2.125Z" fill="#6E7191"/>
<path d="M15.2797 6.16242C14.9523 5.91272 14.6775 5.60079 14.4711 5.24457C14.2647 4.88834 14.1307 4.49484 14.0768 4.08666C14.0229 3.67849 14.0502 3.26369 14.1572 2.8661C14.2641 2.46852 14.4485 2.09598 14.6999 1.7699C14.9513 1.44381 15.2646 1.17062 15.6218 0.965997C15.9791 0.761378 16.3733 0.629375 16.7817 0.577571C17.1902 0.525767 17.6048 0.555183 18.0019 0.664131C18.3989 0.773078 18.7705 0.959409 19.0953 1.21242C19.7348 1.72398 20.148 2.46616 20.2458 3.27924C20.3437 4.09233 20.1185 4.91134 19.6186 5.56006C19.1188 6.20878 18.3843 6.63536 17.5731 6.74801C16.7619 6.86066 15.9389 6.65038 15.2812 6.16242H15.2797ZM17.1875 2.12492C16.7731 2.12492 16.3757 2.28954 16.0826 2.58256C15.7896 2.87559 15.625 3.27301 15.625 3.68742C15.625 4.10182 15.7896 4.49924 16.0826 4.79227C16.3757 5.0853 16.7731 5.24992 17.1875 5.24992C17.6019 5.24992 17.9993 5.0853 18.2923 4.79227C18.5854 4.49924 18.75 4.10182 18.75 3.68742C18.75 3.27301 18.5854 2.87559 18.2923 2.58256C17.9993 2.28954 17.6019 2.12492 17.1875 2.12492Z" fill="#6E7191"/>
<path d="M3.90625 8.375H8.07812C7.90625 8.86406 7.8125 9.39063 7.8125 9.9375H3.90625C3.69905 9.9375 3.50034 10.0198 3.35382 10.1663C3.20731 10.3128 3.125 10.5115 3.125 10.7188C3.125 11.9953 3.63281 12.9422 4.43438 13.5859C4.80313 13.8828 5.24531 14.1219 5.74531 14.2969C5.37814 14.6872 5.09519 15.1488 4.91406 15.6531C4.38958 15.4424 3.89851 15.1566 3.45625 14.8047C2.28125 13.8594 1.5625 12.4625 1.5625 10.7188C1.5625 10.0971 1.80943 9.50101 2.24897 9.06147C2.68851 8.62193 3.28465 8.375 3.90625 8.375Z" fill="#6E7191"/>
<path d="M9.79372 8.37483C9.37932 9.09298 9.26718 9.94635 9.48197 10.7472C9.69676 11.548 10.2209 12.2307 10.939 12.6451C11.6572 13.0595 12.5106 13.1717 13.3114 12.9569C14.1122 12.7421 14.7949 12.218 15.2093 11.4998C15.6238 10.7817 15.7359 9.92831 15.5211 9.12747C15.3063 8.32663 14.7822 7.64392 14.064 7.22952C13.3459 6.81511 12.4925 6.70297 11.6917 6.91776C10.8908 7.13255 10.2081 7.65667 9.79372 8.37483ZM12.15 8.41389C12.3789 8.36217 12.6165 8.36254 12.8453 8.41496C13.0741 8.46738 13.2882 8.57051 13.4717 8.71674C13.6553 8.86298 13.8037 9.04857 13.906 9.25984C14.0082 9.4711 14.0617 9.70263 14.0625 9.93733C14.0624 10.2313 13.9793 10.5193 13.8228 10.7682C13.6664 11.0171 13.4429 11.2168 13.178 11.3444C12.9132 11.472 12.6177 11.5222 12.3255 11.4894C12.0334 11.4566 11.7564 11.342 11.5264 11.1588C11.2965 10.9757 11.1229 10.7313 11.0256 10.4539C10.9282 10.1765 10.9112 9.87726 10.9763 9.59057C11.0414 9.30389 11.1861 9.04139 11.3937 8.83324C11.6013 8.62509 11.8635 8.47974 12.15 8.41389Z" fill="#6E7191"/>
<path d="M20.5656 13.5859C20.1969 13.8828 19.7547 14.1219 19.2547 14.2969C19.6213 14.6873 19.9037 15.1489 20.0844 15.6531C20.6156 15.4359 21.1078 15.1531 21.5437 14.8047C22.7187 13.8594 23.4375 12.4625 23.4375 10.7188C23.4375 10.0971 23.1906 9.50101 22.751 9.06147C22.3115 8.62193 21.7153 8.375 21.0937 8.375H16.9219C17.0937 8.86406 17.1875 9.39063 17.1875 9.9375H21.0937C21.3009 9.9375 21.4997 10.0198 21.6462 10.1663C21.7927 10.3128 21.875 10.5115 21.875 10.7188C21.875 11.9953 21.3672 12.9422 20.5656 13.5859Z" fill="#6E7191"/>
<path d="M16.4063 14.625C17.0279 14.625 17.624 14.8719 18.0635 15.3115C18.5031 15.751 18.75 16.3472 18.75 16.9688C18.75 18.7125 18.0328 20.1094 16.8563 21.0547C15.6984 21.9844 14.1453 22.4375 12.5 22.4375C10.8547 22.4375 9.30157 21.9844 8.14376 21.0547C6.96876 20.1094 6.25001 18.7125 6.25001 16.9688C6.24918 16.6607 6.30924 16.3556 6.42674 16.0709C6.54423 15.7861 6.71684 15.5274 6.93464 15.3096C7.15244 15.0918 7.41114 14.9192 7.69587 14.8017C7.9806 14.6842 8.28574 14.6242 8.59376 14.625H16.4063ZM16.4063 16.1875H8.59376C8.38656 16.1875 8.18784 16.2698 8.04133 16.4163C7.89482 16.5628 7.81251 16.7616 7.81251 16.9688C7.81251 18.2453 8.32032 19.1922 9.12188 19.8359C9.94376 20.4953 11.125 20.875 12.5 20.875C13.875 20.875 15.0563 20.4953 15.8781 19.8359C16.6797 19.1922 17.1875 18.2453 17.1875 16.9688C17.1875 16.7616 17.1052 16.5628 16.9587 16.4163C16.8122 16.2698 16.6135 16.1875 16.4063 16.1875Z" fill="#6E7191"/>
</svg>
