<svg width="73" height="73" viewBox="0 0 73 73" fill="none" xmlns="http://www.w3.org/2000/svg">
<mask id="mask0" mask-type="alpha" maskUnits="userSpaceOnUse" x="0" y="0" width="73" height="73">
<circle cx="36.5" cy="36.5" r="36.5" fill="white"/>
</mask>
<g mask="url(#mask0)">
<path d="M12.4235 28.41C11.8225 22.5165 16.4479 17.3955 22.3719 17.3955H50.1662C56.1032 17.3955 60.7328 22.538 60.1113 28.4424L55.6626 70.7048C55.1268 75.7942 50.8351 79.6579 45.7175 79.6579H26.6815C21.5515 79.6579 17.2536 75.776 16.7331 70.6724L12.4235 28.41Z" fill="#C4C4C4"/>
<mask id="mask1" mask-type="alpha" maskUnits="userSpaceOnUse" x="12" y="17" width="49" height="63">
<path d="M12.4235 28.41C11.8225 22.5165 16.4479 17.3955 22.3719 17.3955H50.1662C56.1032 17.3955 60.7328 22.538 60.1113 28.4424L55.6626 70.7048C55.1268 75.7942 50.8351 79.6579 45.7175 79.6579H26.6815C21.5515 79.6579 17.2536 75.776 16.7331 70.6724L12.4235 28.41Z" fill="#C4C4C4"/>
</mask>
<g mask="url(#mask1)">
<rect x="-4.26538" y="0.191406" width="81.5146" height="81.9242" fill="url(#paint0_linear)"/>
</g>
<circle cx="27.89" cy="31.9373" r="3.48178" fill="white"/>
<circle cx="45.9134" cy="31.9371" r="3.48178" fill="white"/>
<path d="M26.1165 57.0467C26.1165 56.1356 26.8551 55.397 27.7662 55.397C28.6773 55.397 29.4159 56.1356 29.4159 57.0467V79.6579H26.1165V57.0467Z" fill="white"/>
<path d="M44.0698 79.6577H47.3468V57.1286C47.3468 56.2236 46.6132 55.4901 45.7083 55.4901C44.8034 55.4901 44.0698 56.2236 44.0698 57.1286V79.6577Z" fill="white"/>
<path d="M35.0444 79.6577H38.3214V62.044C38.3214 61.1391 37.5878 60.4055 36.6829 60.4055C35.778 60.4055 35.0444 61.1391 35.0444 62.044V79.6577Z" fill="white"/>
<mask id="mask2" mask-type="alpha" maskUnits="userSpaceOnUse" x="8" y="12" width="57" height="4">
<rect x="8.84253" y="12.1155" width="55.3149" height="3.49358" rx="1.74679" fill="#C4C4C4"/>
</mask>
<g mask="url(#mask2)">
<rect x="-4.26538" y="0.191406" width="81.5146" height="81.9242" fill="url(#paint1_linear)"/>
</g>
<mask id="mask3" mask-type="alpha" maskUnits="userSpaceOnUse" x="22" y="6" width="29" height="6">
<path d="M22.4287 11.339C22.4287 8.76641 24.5142 6.68091 27.0868 6.68091H46.1074C48.68 6.68091 50.7655 8.76641 50.7655 11.339H22.4287Z" fill="#C4C4C4"/>
</mask>
<g mask="url(#mask3)">
<rect x="-4.26538" y="-2.33179" width="81.5146" height="81.9242" fill="url(#paint2_linear)"/>
</g>
</g>
<defs>
<linearGradient id="paint0_linear" x1="36.4919" y1="0.191406" x2="36.4919" y2="82.1156" gradientUnits="userSpaceOnUse">
<stop stop-color="#8CFF98" stop-opacity="0.79"/>
<stop offset="1" stop-color="#00C9FF"/>
</linearGradient>
<linearGradient id="paint1_linear" x1="36.4919" y1="0.191406" x2="36.4919" y2="82.1156" gradientUnits="userSpaceOnUse">
<stop stop-color="#8CFF98" stop-opacity="0.79"/>
<stop offset="1" stop-color="#00C9FF"/>
</linearGradient>
<linearGradient id="paint2_linear" x1="36.4919" y1="-2.33179" x2="36.4919" y2="79.5924" gradientUnits="userSpaceOnUse">
<stop stop-color="#8CFF98" stop-opacity="0.79"/>
<stop offset="1" stop-color="#00C9FF"/>
</linearGradient>
</defs>
</svg>
