<svg width="593" height="597" viewBox="0 0 593 597" fill="none" xmlns="http://www.w3.org/2000/svg">
<path d="M526.262 483.031C487.48 484.115 448.67 484.257 409.888 484.257C371.107 484.257 332.154 485.512 293.515 482.746C293.396 482.718 293.29 482.651 293.214 482.555C293.138 482.459 293.097 482.341 293.097 482.219C293.097 482.096 293.138 481.978 293.214 481.882C293.29 481.786 293.396 481.719 293.515 481.691C297.051 481.434 300.587 481.263 304.094 481.064C313.39 473.165 326.65 466.549 336.945 474.591C340.367 463.184 352.429 460.789 363.807 461.445C357.191 446.645 368.683 430.505 384.623 428.024C400.564 425.543 419.527 434.925 422.835 451.521C429.65 449.44 435.41 452.804 440.628 457.738C448.499 449.325 459.506 458.992 464.325 468.346C467.921 465.939 472.27 464.926 476.559 465.494C478.579 465.841 480.475 466.705 482.062 468.003C483.402 469.116 484.771 472.737 486.083 473.079C487.395 473.421 491.786 471.083 493.583 470.883C496.697 470.538 499.847 471.03 502.708 472.309C504.478 473.139 506.057 474.327 507.344 475.8C508.63 477.273 509.595 478.998 510.179 480.864L526.262 481.206C526.504 481.206 526.736 481.302 526.907 481.474C527.078 481.645 527.174 481.877 527.174 482.119C527.174 482.361 527.078 482.593 526.907 482.764C526.736 482.935 526.504 483.031 526.262 483.031Z" fill="#37474F"/>
<path d="M423.747 146.087C423.747 146.087 354.653 136.42 370.821 53.0396C370.821 53.0396 447.985 70.3773 423.747 146.087Z" fill="#6AAD7D"/>
<path opacity="0.1" d="M423.747 146.087C423.747 146.087 354.653 136.42 370.821 53.0396C370.821 53.0396 447.985 70.3773 423.747 146.087Z" fill="black"/>
<path d="M420.239 128.692C418.883 124.471 417.312 120.321 415.534 116.26L415.363 114.691C415.363 113.55 415.163 112.381 415.078 111.241C414.878 108.76 414.736 106.25 414.593 103.77C414.279 98.7792 413.966 93.8175 413.88 88.8272C413.88 88.7743 413.859 88.7235 413.822 88.6861C413.784 88.6486 413.733 88.6276 413.681 88.6276C413.628 88.6276 413.577 88.6486 413.539 88.6861C413.502 88.7235 413.481 88.7743 413.481 88.8272C413.481 93.8175 413.481 98.8078 413.481 103.798C413.481 106.279 413.738 108.788 413.88 111.269C413.88 111.811 413.88 112.381 413.88 112.923C409.994 104.627 405.355 96.704 400.021 89.2549C397.655 85.9186 395.145 82.7533 392.465 79.6735C389.784 76.5938 386.762 73.5141 383.91 70.4059C383.739 70.2062 383.425 70.4059 383.625 70.691C388.575 76.1916 393.031 82.1173 396.942 88.3994C399.023 91.5647 401.019 94.844 402.902 98.1519L402.246 97.8952L399.793 96.8972L394.09 94.7585C390.383 93.3897 386.676 92.0495 382.997 90.6237C382.769 90.6237 382.598 90.9374 382.826 91.0229C386.505 92.4772 390.126 94.0456 393.776 95.614L399.109 97.8952C400.021 98.2945 400.905 98.6651 401.961 99.0073C402.537 99.3052 403.151 99.5258 403.786 99.6632C405.183 102.173 406.637 104.682 407.835 107.248C411.088 113.723 413.944 120.389 416.39 127.21L416.874 128.664C415.053 127.561 413.146 126.608 411.171 125.812L404.014 122.562C399.166 120.337 394.347 118.056 389.756 115.433C389.499 115.433 389.299 115.689 389.556 115.803C394.29 118.398 398.938 121.164 403.814 123.759C406.181 125.042 408.576 126.297 411 127.466C413.019 128.665 415.212 129.541 417.502 130.061C419.806 136.382 421.329 142.961 422.036 149.652C422.806 159.09 422.72 168.586 422.92 178.168C422.92 178.339 423.176 178.31 423.176 178.168C423.861 169.613 424.26 160.915 424.288 152.332C424.225 144.285 422.857 136.302 420.239 128.692V128.692Z" fill="#263238"/>
<path d="M409.603 79.6447C408.934 84.519 408.705 89.4436 408.919 94.359H409.147C409.403 89.4827 409.46 84.6064 410.031 79.7587C410.059 79.502 409.631 79.388 409.603 79.6447Z" fill="#263238"/>
<path d="M389.87 83.8089C386.781 82.6207 383.804 81.1607 380.973 79.4459C380.745 79.2748 380.545 79.6741 380.773 79.8167C383.543 81.6725 386.569 83.1135 389.756 84.0941C389.927 84.1511 390.041 83.8089 389.87 83.8089Z" fill="#263238"/>
<path d="M425.943 278.458C425.943 270.844 425.743 263.202 425.657 255.645C425.515 230.323 425.315 204.973 424.859 179.622C424.498 159.49 424.022 139.367 423.433 119.254C423.432 119.199 423.416 119.146 423.385 119.1C423.355 119.055 423.312 119.019 423.262 118.997V102.515C423.262 102.515 423.091 102.315 422.948 102.315C422.806 102.315 422.606 102.315 422.606 102.515C422.606 108.018 422.606 113.522 422.606 119.026C422.606 119.026 422.464 119.168 422.464 119.282C421.437 155.098 420.525 190.914 420.325 226.73C420.325 234.002 420.325 241.302 420.325 248.573C420.097 271.918 420.011 295.273 420.068 318.637V329.787C420.068 351.174 420.296 458.108 420.296 479.438C420.296 480.579 421.58 481.149 422.948 481.206C424.317 481.263 426.142 480.665 426.142 479.353C426.142 455.77 426.313 346.668 426.285 323.114C426 308.172 426.057 293.315 425.943 278.458Z" fill="#263238"/>
<path d="M397.084 255.274C397.084 255.274 363.863 230.665 332.353 247.29C300.843 263.915 295.881 328.047 295.881 328.047C295.881 328.047 342.163 334.663 371.334 306.917C399.423 280.169 397.084 255.274 397.084 255.274Z" fill="#6AAD7D"/>
<path d="M406.152 256.815C400.043 254.398 393.431 253.526 386.904 254.277C385.555 254.054 384.193 253.93 382.826 253.906L378.149 253.536C374.927 253.279 371.705 253.108 368.454 252.851C361.924 252.367 355.337 251.967 348.807 251.312C348.578 251.312 348.521 251.682 348.807 251.711C355.28 252.538 361.724 253.479 368.226 254.135C371.562 254.477 374.899 254.819 378.235 255.047L380.687 255.275C379.689 255.503 378.691 255.732 377.836 256.017C372.621 257.543 367.576 259.597 362.779 262.148C360.184 262.604 357.561 263.345 354.995 263.944C350.888 264.914 346.81 265.969 342.704 267.052C334.634 269.163 326.678 271.529 318.665 273.868C318.409 273.868 318.665 274.324 318.665 274.267C326.678 272.299 334.72 270.503 342.733 268.564C346.611 267.651 350.517 266.739 354.396 265.712L357.447 264.999C348.529 270.536 340.557 277.468 333.836 285.531C327.367 293.483 321.863 302.175 317.439 311.423C317.439 311.651 317.667 311.879 317.781 311.651C323.274 302.133 329.984 293.371 337.742 285.588L337.315 286.899C336.687 288.867 336.06 290.806 335.461 292.774C334.235 296.68 332.98 300.587 331.811 304.522C331.811 304.779 332.125 304.864 332.21 304.522C333.636 300.73 335.062 296.908 336.288 293.116L338.256 287.413C338.598 286.443 338.94 285.445 339.254 284.561C339.254 284.276 339.482 283.962 339.567 283.677C343.274 280.071 347.218 276.718 351.373 273.64C356.846 269.61 362.758 266.214 368.996 263.516L368.654 265.227C368.34 266.739 367.998 268.25 367.684 269.761C367.028 272.927 366.429 276.063 365.802 279.229C364.547 285.645 363.777 292.146 362.58 298.591C362.58 298.848 362.922 298.962 362.979 298.591C364.462 292.118 366.401 285.759 367.827 279.257C368.568 276.035 369.281 272.784 369.965 269.533C370.279 268.022 370.564 266.511 370.878 264.971C371.049 264.144 371.249 263.288 371.363 262.433C371.961 262.205 372.532 261.919 373.159 261.691C381.856 258.469 391.495 256.131 400.791 257.899C405.181 258.72 409.299 260.613 412.781 263.408C416.264 266.204 419.002 269.816 420.752 273.925C421.066 274.666 422.206 274.21 422.035 273.468C420.867 269.648 418.822 266.153 416.065 263.262C413.307 260.37 409.913 258.163 406.152 256.815V256.815Z" fill="#263238"/>
<path d="M355.308 284.19L352.457 296.794C351.418 300.836 350.647 304.942 350.147 309.085C350.147 309.256 350.375 309.256 350.404 309.085C351.64 305.03 352.592 300.895 353.255 296.709C354.082 292.574 354.881 288.411 355.708 284.247C355.711 284.221 355.71 284.194 355.703 284.169C355.697 284.143 355.685 284.119 355.669 284.098C355.653 284.077 355.633 284.059 355.611 284.045C355.588 284.032 355.563 284.023 355.536 284.019C355.51 284.015 355.484 284.017 355.458 284.023C355.432 284.03 355.408 284.042 355.387 284.057C355.366 284.073 355.348 284.093 355.334 284.116C355.321 284.139 355.312 284.164 355.308 284.19V284.19Z" fill="#263238"/>
<path d="M323.171 294.826C318.922 296.964 314.844 299.417 310.424 301.156C310.388 301.16 310.354 301.171 310.323 301.191C310.293 301.21 310.268 301.236 310.249 301.267C310.231 301.298 310.22 301.333 310.218 301.369C310.215 301.404 310.222 301.44 310.236 301.473C310.25 301.506 310.272 301.536 310.299 301.559C310.327 301.582 310.359 301.598 310.395 301.606C310.43 301.614 310.466 301.614 310.501 301.605C310.536 301.596 310.568 301.579 310.595 301.556C314.844 299.417 319.15 297.535 323.256 294.997C323.37 294.968 323.256 294.826 323.171 294.826Z" fill="#263238"/>
<path d="M404.555 210.077C404.555 210.077 363.977 212.672 345.071 185.895C326.165 159.119 330.414 120.879 330.414 120.879C330.414 120.879 373.188 126.069 390.012 145.289C406.836 164.508 404.555 210.077 404.555 210.077Z" fill="#6AAD7D"/>
<path d="M423.604 250.141C422.178 245.778 420.439 241.586 418.813 237.252C417.188 232.917 415.534 229.096 413.766 225.076C410.136 216.889 406.072 208.903 401.59 201.151C398.738 196.217 395.658 191.427 392.493 186.693C392.493 185.98 392.265 185.267 392.179 184.554C391.98 183.3 391.809 182.016 391.609 180.762C391.21 178.195 390.754 175.629 390.326 173.062C389.385 167.359 388.244 161.884 387.332 156.295C387.332 156.01 386.875 156.038 386.904 156.295C387.731 161.827 388.301 167.416 389.071 172.948C389.442 175.8 389.812 178.395 390.212 181.132C390.383 182.102 390.525 183.1 390.668 183.984C384.513 174.925 377.849 166.223 370.707 157.92C369.737 156.808 368.739 155.725 367.855 154.613C367.855 154.299 367.599 154.014 367.485 153.672C367.37 153.329 366.886 152.132 366.601 151.362L364.833 146.514C363.692 143.349 362.694 140.126 361.81 136.876C361.81 136.591 361.354 136.733 361.411 136.876C362.238 140.212 363.093 143.52 364.063 146.828C364.547 148.425 365.061 149.993 365.631 151.533L365.916 152.331C360.726 146.628 355.308 141.21 349.833 135.821C349.662 135.65 349.377 135.821 349.548 136.134C360.042 147.116 369.662 158.9 378.321 171.38C377.337 171.07 376.338 170.813 375.326 170.61C372.19 170.011 369.053 169.555 365.888 169.156C359.272 168.329 352.656 167.473 346.069 166.447C346.043 166.447 346.017 166.452 345.993 166.462C345.969 166.472 345.946 166.487 345.928 166.505C345.909 166.524 345.895 166.546 345.885 166.57C345.875 166.594 345.87 166.62 345.87 166.646C345.87 166.673 345.875 166.699 345.885 166.723C345.895 166.747 345.909 166.769 345.928 166.787C345.946 166.806 345.969 166.821 345.993 166.831C346.017 166.841 346.043 166.846 346.069 166.846C352.343 168.101 358.588 169.498 364.833 170.952C367.684 171.637 370.735 172.207 373.73 172.777C376.148 173.305 378.53 173.991 380.858 174.83C381.486 175.772 382.17 176.684 382.826 177.682C385.82 182.017 388.672 186.436 391.381 190.913L387.246 190.086C384.109 189.488 380.944 188.917 377.807 188.404C371.619 187.377 365.403 186.322 359.3 184.925C359.248 184.925 359.197 184.946 359.159 184.984C359.122 185.021 359.101 185.072 359.101 185.125C359.101 185.178 359.122 185.228 359.159 185.266C359.197 185.303 359.248 185.324 359.3 185.324C365.517 186.779 371.676 188.49 377.836 190.115C380.687 190.913 383.796 191.655 386.79 192.311L391.324 193.28C391.92 193.447 392.531 193.552 393.149 193.594C399.08 203.204 404.555 213.07 409.802 223.108C412.064 227.537 414.251 231.995 416.361 236.482C418.528 241.073 420.382 245.778 422.378 250.483C422.463 251.538 423.946 251.168 423.604 250.141Z" fill="#263238"/>
<path d="M382.057 156.81C381.287 152.96 380.46 149.082 379.604 145.232C379.604 144.976 379.148 145.09 379.205 145.232C379.975 149.053 380.716 152.846 381.401 156.639C381.969 160.479 382.74 164.286 383.71 168.045C383.71 168.045 383.71 168.045 383.71 168.045C383.425 164.266 382.872 160.511 382.057 156.81V156.81Z" fill="#263238"/>
<path d="M358.388 155.696C356.53 154.784 354.626 153.965 352.685 153.244L349.605 152.018L348.037 151.391C347.434 151.227 346.858 150.978 346.326 150.649C346.012 150.421 345.813 150.963 346.126 151.02C346.732 151.176 347.316 151.406 347.866 151.704L349.406 152.417L352.257 153.729C354.205 154.635 356.205 155.426 358.246 156.096C358.291 156.094 358.335 156.079 358.372 156.052C358.409 156.025 358.437 155.987 358.452 155.944C358.468 155.901 358.47 155.855 358.458 155.811C358.447 155.766 358.423 155.727 358.388 155.696V155.696Z" fill="#263238"/>
<path d="M446.131 178.139C446.131 178.139 470.712 132.256 508.097 125.127C545.481 117.998 568.351 156.495 568.351 156.495C568.351 156.495 541.09 191.313 506.785 197.387C472.48 203.461 446.131 178.139 446.131 178.139Z" fill="#6AAD7D"/>
<path d="M533.134 145.716C523.398 144.404 513.522 144.52 503.82 146.058C504.39 145.745 504.932 145.431 505.502 145.174L513.772 140.897C519.475 138.045 525.321 134.737 531.337 132.342C531.387 132.319 531.425 132.278 531.443 132.227C531.462 132.177 531.46 132.12 531.437 132.071C531.415 132.022 531.373 131.984 531.322 131.965C531.272 131.946 531.216 131.949 531.166 131.971C525.321 134.68 519.247 136.962 513.401 139.671C510.549 141.011 507.698 142.522 504.704 143.948C502.879 144.918 500.825 145.83 499 146.999C490.782 148.66 482.797 151.312 475.218 154.898L479.895 149.822C483.374 146.001 486.824 142.009 490.645 138.416C490.845 138.216 490.645 137.931 490.332 138.102C486.425 141.667 482.29 144.946 478.497 148.653C476.644 150.45 474.905 152.303 473.194 154.356C472.338 155.297 471.454 156.295 470.656 157.208C457.822 164.086 446.671 173.721 438.003 185.421C429.335 197.121 423.366 210.596 420.525 224.876C420.525 225.133 420.838 225.276 420.924 225.019C426.188 207.519 435.621 191.559 448.413 178.509C462.158 164.477 479.471 154.459 498.487 149.537C509.794 146.703 521.48 145.693 533.105 146.543C533.16 146.545 533.214 146.536 533.265 146.517C533.316 146.498 533.362 146.469 533.402 146.432C533.442 146.395 533.474 146.35 533.496 146.301C533.519 146.252 533.531 146.198 533.533 146.144C533.535 146.09 533.526 146.035 533.507 145.985C533.488 145.934 533.459 145.887 533.422 145.847C533.385 145.808 533.341 145.776 533.291 145.753C533.242 145.731 533.188 145.718 533.134 145.716Z" fill="#263238"/>
<path opacity="0.1" d="M568.351 156.495C568.351 156.495 541.09 191.341 506.785 197.386C480.608 202.035 459.078 188.375 450.324 181.674L448.442 178.566C448.442 178.566 466.15 163.652 499.77 155.04C533.39 146.429 568.351 156.495 568.351 156.495Z" fill="black"/>
<path d="M511.433 129.433C508.569 131.105 505.799 132.933 503.135 134.909C500.538 136.884 498.123 139.088 495.92 141.496C495.894 141.539 495.882 141.591 495.888 141.642C495.894 141.693 495.917 141.74 495.954 141.776C495.99 141.812 496.037 141.835 496.088 141.841C496.139 141.847 496.19 141.836 496.234 141.809C498.715 139.671 501.224 137.503 503.791 135.45C506.298 133.393 508.926 131.489 511.661 129.747C512.003 129.576 511.661 129.205 511.433 129.433Z" fill="#263238"/>
<path d="M531.965 137.105C530.596 137.704 529.113 138.188 527.801 138.759L523.638 140.498C523.324 140.498 523.467 141.097 523.781 140.983L527.944 139.3C529.341 138.73 530.796 138.074 532.107 137.532C532.307 137.418 532.193 137.019 531.965 137.105Z" fill="#263238"/>
<path d="M441.227 235.912C441.227 235.912 447.786 281.537 482.033 297.392C516.281 313.247 558.028 297.392 558.028 297.392C558.028 297.392 541.603 198.869 441.227 235.912Z" fill="#6AAD7D"/>
<path d="M534.417 267.764C531.252 267.394 528.115 266.852 525.007 266.282L520.387 265.426L517.992 264.941C517.079 264.086 516.167 263.202 515.14 262.375C508.648 256.669 501.63 251.589 494.181 247.204C490.137 244.788 485.947 242.626 481.634 240.731H482.29L493.554 241.245C501.082 241.587 508.582 241.758 516.11 242.243C516.367 242.243 516.367 241.843 516.11 241.815C508.582 241.302 501.082 240.475 493.554 239.819L482.604 238.849L476.9 238.364L475.446 238.193C473.507 237.48 471.539 236.796 469.543 236.169C460.209 232.968 450.171 232.415 440.543 234.572C431.988 236.768 423.433 242.414 421.095 251.51C421.095 251.824 421.523 252.024 421.665 251.71C424.859 244.125 433.3 240.303 440.885 238.735C446.001 237.761 451.246 237.655 456.397 238.421C456.741 240.775 457.324 243.087 458.137 245.322C459.078 248.516 460.019 251.71 460.989 254.932C462.928 261.32 465.066 267.65 466.948 274.066C466.967 274.119 467.006 274.163 467.057 274.187C467.082 274.199 467.11 274.205 467.137 274.207C467.165 274.208 467.193 274.204 467.219 274.195C467.246 274.185 467.27 274.171 467.29 274.152C467.311 274.134 467.328 274.111 467.34 274.086C467.352 274.061 467.358 274.033 467.36 274.006C467.361 273.978 467.357 273.95 467.348 273.924C465.751 267.536 464.496 261.092 462.871 254.704C462.129 251.539 461.331 248.402 460.561 245.265C460.117 243.073 459.536 240.911 458.821 238.792C461.823 239.334 464.793 240.038 467.718 240.902C473.005 242.472 478.187 244.377 483.231 246.606C483.744 249.856 484.457 253.079 485.199 256.272C486.14 260.293 487.195 264.285 488.449 268.192C488.449 268.245 488.47 268.296 488.508 268.333C488.545 268.371 488.596 268.392 488.649 268.392C488.702 268.392 488.753 268.371 488.79 268.333C488.828 268.296 488.849 268.245 488.849 268.192L488.678 267.451C487.908 263.715 487.081 260.008 486.311 256.301C485.683 253.307 485.084 250.284 484.429 247.29C488.699 249.182 492.868 251.296 496.919 253.62C496.919 254.533 497.232 255.474 497.375 256.329C497.603 257.898 497.888 259.438 498.173 261.006C498.829 264.514 499.514 268.021 500.369 271.5C501.914 278.212 503.876 284.822 506.243 291.29C506.223 291.33 506.213 291.374 506.213 291.418C506.213 291.463 506.223 291.507 506.243 291.547L506.443 291.775C506.586 291.946 506.842 291.775 506.785 291.575C505.217 284.817 503.392 278.144 501.909 271.357C501.196 267.964 500.426 264.599 499.77 261.206C499.428 259.495 499.114 257.812 498.772 256.101C498.772 255.617 498.772 255.103 498.544 254.59C503.196 257.287 507.69 260.248 512.004 263.458C519.383 268.995 526.211 275.231 532.392 282.079C532.649 282.336 533.134 282.079 532.906 281.68C530.282 278.23 527.687 274.893 524.75 271.7C523.011 269.875 521.243 268.078 519.418 266.339H519.988C521.585 266.624 523.182 266.852 524.807 267.08C527.972 267.508 531.138 267.821 534.332 268.164C534.588 268.192 534.816 267.793 534.417 267.764Z" fill="#263238"/>
<path d="M510.35 283.192C510.35 282.792 510.35 282.422 510.178 282.023C510.007 281.623 509.808 281.024 509.751 280.54C509.038 277.488 508.439 274.437 507.897 271.357C507.882 271.32 507.857 271.289 507.824 271.266C507.791 271.244 507.752 271.232 507.712 271.232C507.672 271.232 507.633 271.244 507.6 271.266C507.567 271.289 507.541 271.32 507.526 271.357C507.73 275.437 508.607 279.455 510.121 283.249H510.378L510.35 283.192Z" fill="#263238"/>
<path d="M481.691 282.479C481.696 282.451 481.694 282.423 481.686 282.397C481.678 282.37 481.663 282.346 481.644 282.326C481.624 282.306 481.6 282.292 481.573 282.284C481.547 282.275 481.519 282.274 481.491 282.279C480.55 278.258 479.609 274.209 478.782 270.16C478.355 268.021 477.898 265.882 477.499 263.744C477.271 262.603 477.071 261.434 476.843 260.293C476.747 259.31 476.497 258.348 476.102 257.442C476.102 257.271 475.76 257.442 475.731 257.442C475.705 259.508 475.993 261.565 476.587 263.544C477.014 265.768 477.442 267.993 477.927 270.188C478.925 274.694 480.037 279.171 481.32 283.591C481.32 283.847 481.776 283.79 481.776 283.591L481.691 282.479Z" fill="#263238"/>
<path d="M531.309 254.647C525.035 253.792 518.79 252.879 512.545 252.138C512.26 252.138 512.146 252.508 512.545 252.537C518.79 253.449 525.064 254.219 531.309 255.046C531.451 255.103 531.565 254.676 531.309 254.647Z" fill="#263238"/>
<path d="M423.604 129.12C423.604 129.12 402.644 37.2133 501.424 0C501.509 0 528.856 120.879 423.604 129.12Z" fill="#6AAD7D"/>
<path d="M444.991 76.9928L446.075 76.3369L451.635 73.2287L463.042 66.8126C470.57 62.5923 478.013 58.2578 485.598 54.0945C485.854 53.9519 485.598 53.6098 485.398 53.7238C477.784 57.8587 470.057 61.7368 462.414 65.786L451.008 71.7744L446.36 74.1983C449.668 67.9533 453.175 61.8509 457.053 55.9481C462.215 48.0777 467.861 40.578 473.764 33.1354C473.802 33.0686 473.817 32.9909 473.805 32.9147C473.794 32.8386 473.757 32.7686 473.701 32.7158C473.645 32.6631 473.573 32.6308 473.497 32.6241C473.42 32.6174 473.343 32.6368 473.279 32.6791C464.612 41.0948 456.956 50.4925 450.466 60.6817C450.466 60.3395 450.466 60.0258 450.466 59.7121C450.466 57.4308 450.637 55.1496 450.666 52.8399C450.666 48.3629 450.523 43.8859 450.666 39.3803C450.666 39.1237 450.238 39.1237 450.238 39.3803C450.038 43.8003 449.525 48.1917 449.268 52.6117C449.268 54.8074 449.04 57.0032 448.983 59.2274C448.983 60.3965 448.841 61.7653 448.983 63.0771C446.959 66.2994 444.991 69.5786 443.28 72.915C439.963 78.8999 437.011 85.0802 434.44 91.4219C434.44 89.1406 434.212 86.8593 434.07 84.578C433.784 79.5307 433.157 74.5119 432.957 69.4931C432.941 69.4495 432.912 69.4118 432.874 69.3852C432.836 69.3586 432.79 69.3443 432.743 69.3443C432.697 69.3443 432.652 69.3586 432.613 69.3852C432.575 69.4118 432.546 69.4495 432.53 69.4931C432.53 74.5405 432.387 79.5592 432.53 84.6065C432.53 87.1159 432.672 89.6254 432.843 92.1348L433.014 94.9864C429.869 103.198 427.38 111.646 425.572 120.251C423.863 129.43 422.635 138.691 421.893 147.997C422.955 139.616 424.71 131.337 427.14 123.246C428.366 118.911 429.649 114.691 431.047 110.299C435.153 108.36 439.088 105.965 443.052 103.769L455.456 96.9824C463.698 92.4484 471.91 87.8573 480.408 83.8651C480.665 83.8651 480.408 83.4089 480.208 83.4945C471.654 87.4011 462.899 91.1081 454.544 95.357C450.324 97.4672 446.189 99.7485 442.083 102.058C438.661 103.969 435.125 105.908 431.845 108.132C432.815 105.281 433.813 102.429 434.896 99.5774C437.879 91.8839 441.248 84.346 444.991 76.9928Z" fill="#263238"/>
<path d="M436.664 55.9764C436.664 55.7198 436.237 55.7198 436.265 55.9764C436.607 61.2234 436.779 66.4704 437.349 71.7174C437.349 71.7779 437.373 71.8358 437.416 71.8786C437.459 71.9214 437.517 71.9454 437.577 71.9454C437.638 71.9454 437.696 71.9214 437.738 71.8786C437.781 71.8358 437.805 71.7779 437.805 71.7174C437.634 66.4419 437.064 61.2234 436.664 55.9764Z" fill="#263238"/>
<path d="M484.029 73.5418C477.841 76.0226 471.596 78.3894 465.465 80.9558C465.294 80.9558 465.465 81.298 465.465 81.241C471.71 78.9027 477.87 76.3648 484.058 73.941C484.4 73.827 484.286 73.4277 484.029 73.5418Z" fill="#263238"/>
<path d="M493.411 31.1398C487.371 33.9196 481.505 37.062 475.845 40.55C475.785 40.5878 475.742 40.6482 475.726 40.7177C475.709 40.7872 475.722 40.8602 475.76 40.9207C475.797 40.9812 475.858 41.0242 475.927 41.0403C475.997 41.0563 476.07 41.0441 476.13 41.0062C481.833 37.6699 487.679 34.4477 493.639 31.5105C493.867 31.368 493.668 31.0258 493.411 31.1398Z" fill="#263238"/>
<path d="M248.317 494.438C305.348 495.835 362.694 496.006 419.897 496.006C477.1 496.006 534.502 497.603 591.477 494.067C591.577 494.088 591.68 494.086 591.778 494.062C591.877 494.038 591.969 493.992 592.048 493.928C592.127 493.864 592.19 493.783 592.234 493.691C592.278 493.599 592.3 493.499 592.3 493.397C592.3 493.295 592.278 493.195 592.234 493.103C592.19 493.011 592.127 492.93 592.048 492.866C591.969 492.802 591.877 492.756 591.778 492.732C591.68 492.708 591.577 492.706 591.477 492.727C586.287 492.385 581.069 492.185 575.879 491.928C562.163 481.834 542.629 473.422 527.402 483.687C522.326 469.258 504.589 466.065 487.765 466.92C497.517 448.014 480.607 427.454 457.082 424.317C432.957 421.066 405.753 433.072 400.734 454.259C390.697 451.607 382.199 455.884 374.528 462.158C362.922 451.464 346.668 463.755 339.568 475.703C334.077 472.646 327.751 471.426 321.517 472.224C318.613 472.639 315.848 473.733 313.447 475.418C311.451 476.843 309.426 481.463 307.516 481.891C305.605 482.319 298.961 479.353 296.451 479.039C291.884 478.577 287.272 479.202 282.992 480.864C280.484 481.808 278.204 483.271 276.302 485.158C274.4 487.046 272.919 489.314 271.956 491.814L248.26 492.271C248.117 492.274 247.977 492.306 247.847 492.364C247.717 492.422 247.6 492.505 247.502 492.608C247.404 492.711 247.327 492.833 247.276 492.966C247.225 493.099 247.201 493.24 247.204 493.383C247.208 493.525 247.24 493.665 247.298 493.795C247.356 493.925 247.439 494.043 247.542 494.141C247.645 494.239 247.767 494.315 247.9 494.366C248.033 494.417 248.174 494.442 248.317 494.438V494.438Z" fill="#455A64"/>
<path d="M67.9534 499.628C80.6219 496.409 93.6667 494.913 106.735 495.18C118.37 495.779 144.604 500.883 152.56 502.309C160.516 503.734 171.181 502.109 170.525 505.502C169.869 508.896 132.314 520.359 116.003 517.964C99.6916 515.569 67.9534 499.628 67.9534 499.628Z" fill="#37474F"/>
<path d="M121.877 425.486C121.877 420.04 121.677 414.565 121.592 409.09C121.592 390.953 121.278 372.817 120.85 354.681C120.508 340.271 120.071 325.871 119.539 311.48C119.526 311.439 119.504 311.403 119.474 311.373C119.445 311.343 119.408 311.321 119.367 311.309V299.503C119.367 299.503 119.225 299.36 119.054 299.36C118.883 299.36 118.74 299.36 118.74 299.503V311.337C118.7 311.344 118.663 311.365 118.637 311.396C118.611 311.428 118.597 311.467 118.597 311.508C117.628 337.172 116.801 362.837 116.601 388.501C116.601 393.72 116.601 398.938 116.601 404.156C116.373 420.867 116.297 437.577 116.373 454.287C116.373 456.939 116.373 459.62 116.373 462.272C116.373 477.556 116.573 554.064 116.573 569.349C116.573 570.176 117.771 570.604 119.054 570.632C120.337 570.661 121.905 570.233 121.905 569.292C121.905 552.439 122.048 474.363 122.048 457.481C121.934 446.759 121.991 436.123 121.877 425.486Z" fill="#263238"/>
<path d="M94.844 326.85C94.844 326.85 63.7331 303.78 34.2191 319.35C4.70513 334.92 0 394.974 0 394.974C0 394.974 43.3442 401.191 70.6625 375.184C97.0397 350.147 94.844 326.85 94.844 326.85Z" fill="#6AAD7D"/>
<path d="M103.342 328.276C97.622 326.011 91.4302 325.198 85.3195 325.909C84.0573 325.687 82.7798 325.563 81.4984 325.539L77.107 325.225C74.0843 324.968 71.0616 324.797 68.0389 324.569C61.908 324.113 55.7485 323.742 49.6176 323.115C49.3895 323.115 49.361 323.485 49.6176 323.514C55.663 324.284 61.7084 325.139 67.7823 325.767C70.919 326.08 74.0558 326.394 77.1925 326.622L79.4453 326.85C78.5328 327.05 77.5917 327.278 76.5937 327.535C71.7116 328.938 66.9901 330.85 62.5068 333.238C60.0544 333.666 57.6306 334.35 55.2067 334.92C51.3571 335.833 47.5359 336.831 43.8004 337.772C36.2436 339.739 28.7725 341.964 21.2728 344.159C21.0162 344.159 21.1302 344.587 21.2728 344.53C28.744 342.705 36.3007 341.023 43.8004 339.226C47.4504 338.371 51.1004 337.515 54.7505 336.603L57.6021 335.947C49.2429 341.125 41.7714 347.615 35.4737 355.167C29.4062 362.607 24.2465 370.744 20.1036 379.405C20.1036 379.633 20.3033 379.861 20.4458 379.633C25.5485 370.718 31.7993 362.512 39.0382 355.224C39.0382 355.623 38.7816 356.051 38.639 356.45C38.0687 358.275 37.4983 360.128 36.8995 361.953C35.7589 365.603 34.5897 369.282 33.5061 372.961C33.5061 373.217 33.7913 373.274 33.8768 372.961C35.1886 369.425 36.4433 365.832 37.698 362.267L39.523 357.02C39.8652 356.108 40.1503 355.195 40.464 354.169C40.464 353.883 40.6636 353.627 40.7777 353.342C44.234 349.953 47.9214 346.809 51.8134 343.931C56.9363 340.154 62.4762 336.977 68.3241 334.464C68.3241 335.006 68.1245 335.548 68.0104 336.061C67.6967 337.487 67.383 338.913 67.0979 340.31C66.4705 343.161 65.9002 346.213 65.3299 349.15C64.1607 355.195 63.4478 361.269 62.3072 367.314C62.322 367.352 62.3476 367.383 62.3806 367.406C62.4137 367.428 62.4527 367.44 62.4926 367.44C62.5325 367.44 62.5714 367.428 62.6045 367.406C62.6375 367.383 62.6631 367.352 62.6779 367.314C64.0752 361.269 65.8717 355.309 67.2405 349.235C67.8963 346.184 68.5807 343.161 69.2366 340.11L70.092 335.861C70.2346 335.063 70.4342 334.264 70.5198 333.466C71.0901 333.238 71.6319 332.981 72.2022 332.782C80.3863 329.759 89.3118 327.563 98.0947 329.217C102.213 329.988 106.077 331.762 109.345 334.384C112.613 337.005 115.184 340.392 116.83 344.245C117.115 344.901 118.17 344.473 118.027 343.789C116.947 340.243 115.058 336.997 112.509 334.305C109.961 331.613 106.823 329.549 103.342 328.276V328.276Z" fill="#263238"/>
<path d="M55.7485 353.911C54.893 357.846 54.0091 361.782 53.1251 365.745C52.1516 369.495 51.4276 373.306 50.9579 377.152C50.9579 377.294 51.186 377.294 51.2145 377.152C52.3538 373.355 53.2397 369.488 53.8665 365.574C54.6364 361.667 55.3778 357.789 56.1477 353.883C56.1439 353.83 56.1193 353.78 56.0792 353.746C56.0391 353.711 55.9868 353.694 55.9339 353.697C55.8809 353.701 55.8316 353.726 55.7969 353.766C55.7621 353.806 55.7447 353.858 55.7485 353.911V353.911Z" fill="#263238"/>
<path d="M25.6074 363.92C21.6437 365.945 17.8225 368.226 13.6592 369.88C13.4026 369.88 13.6592 370.365 13.8303 370.222C17.8874 368.384 21.8468 366.338 25.6929 364.091C25.6929 364.091 25.7215 363.863 25.6074 363.92Z" fill="#263238"/>
<path d="M119.396 291.975C119.396 291.975 155.184 278.886 161.286 248.83C167.388 218.774 149.366 187.549 149.366 187.549C149.366 187.549 114.748 208.081 107.476 230.951C100.205 253.82 119.396 291.975 119.396 291.975Z" fill="#6AAD7D"/>
<path d="M118.142 333.436C117.714 329.187 117.6 324.881 117.4 320.575C117.201 316.27 117.115 312.363 117.144 308.257C117.176 299.863 117.652 291.477 118.569 283.134C119.168 277.83 119.995 272.583 120.936 267.336C120.708 266.68 120.566 266.025 120.395 265.369C120.081 264.2 119.739 263.059 119.453 261.918C118.826 259.551 118.256 257.185 117.657 254.818C116.345 249.656 115.233 244.466 113.864 239.305C113.864 239.077 114.178 238.906 114.235 239.305C115.632 244.352 117.258 249.343 118.684 254.39C119.368 256.871 120.109 259.352 120.765 261.833C120.993 262.745 121.25 263.629 121.478 264.542C123.38 254.438 125.856 244.451 128.892 234.628C129.291 233.317 129.748 231.976 130.175 230.665C130.175 230.351 130.175 230.037 130.175 229.724C130.175 228.954 130.175 228.184 130.175 227.414C130.175 225.788 129.976 224.192 129.862 222.595C129.634 219.429 129.291 216.293 128.807 213.184C128.807 213.132 128.828 213.081 128.865 213.043C128.903 213.006 128.953 212.985 129.006 212.985C129.059 212.985 129.11 213.006 129.147 213.043C129.185 213.081 129.206 213.132 129.206 213.184C129.748 216.35 130.261 219.515 130.66 222.709C130.86 224.249 131.002 225.788 131.116 227.357C131.116 227.614 131.116 227.87 131.116 228.127C133.426 221.311 136.021 214.61 138.673 207.938C138.673 207.681 139.129 207.937 139.044 208.08C134.174 221.448 130.36 235.178 127.638 249.143C128.368 248.495 129.14 247.895 129.947 247.347C132.4 245.664 134.938 244.096 137.476 242.556C142.837 239.334 148.169 236.14 153.444 232.775C153.464 232.752 153.489 232.733 153.516 232.721C153.544 232.709 153.574 232.703 153.604 232.704C153.634 232.706 153.664 232.714 153.691 232.728C153.717 232.742 153.74 232.762 153.758 232.787C153.776 232.811 153.788 232.839 153.793 232.869C153.799 232.899 153.797 232.929 153.789 232.958C153.781 232.987 153.766 233.014 153.746 233.037C153.726 233.059 153.701 233.077 153.673 233.089C148.739 236.511 143.949 240.075 139.129 243.668C136.848 245.35 134.538 246.947 132.2 248.573C130.336 249.938 128.555 251.414 126.868 252.993C126.64 254.048 126.411 255.103 126.212 256.158C125.299 261.006 124.501 265.882 123.788 270.758L127.039 268.505C129.491 266.794 131.972 265.112 134.481 263.487C139.415 260.293 144.319 257.042 149.053 253.534C149.253 253.363 149.481 253.677 149.281 253.848C144.519 257.441 139.871 261.205 135.223 264.941C132.97 266.737 130.66 268.477 128.35 270.188L124.843 272.726C124.388 273.083 123.901 273.397 123.389 273.667C121.934 284.161 120.851 294.712 120.223 305.262C119.938 309.882 119.767 314.53 119.653 319.178C119.539 323.826 119.653 328.703 119.653 333.436C119.682 334.206 118.256 334.434 118.142 333.436Z" fill="#263238"/>
<path d="M118.626 237.794C117.828 234.201 117.086 230.579 116.373 226.929C116.373 226.701 116.687 226.644 116.744 226.929C117.514 230.465 118.341 234.03 119.168 237.566C120.137 241.056 120.908 244.597 121.478 248.174C121.478 248.174 121.478 248.174 121.478 248.174C120.283 244.785 119.331 241.317 118.626 237.794V237.794Z" fill="#263238"/>
<path d="M138.445 227.871C139.728 226.36 141.125 225.019 142.522 223.565L144.718 221.369L145.83 220.257C146.278 219.887 146.672 219.455 146.999 218.974C147.199 218.66 147.57 218.974 147.313 219.202C146.855 219.57 146.444 219.991 146.087 220.457L145.032 221.626L142.979 223.879C141.657 225.395 140.238 226.824 138.73 228.156C138.616 228.327 138.445 228.07 138.445 227.871Z" fill="#263238"/>
<path d="M136.192 394.033C136.192 394.033 142.323 436.664 174.403 451.578C206.484 466.492 245.693 451.578 245.693 451.578C245.693 451.578 230.181 359.329 136.192 394.033Z" fill="#6AAD7D"/>
<path d="M223.479 423.832C220.627 423.518 217.576 423.005 214.639 422.463L210.333 421.665C209.592 421.522 208.85 421.323 208.08 421.208L205.485 418.785C199.399 413.438 192.831 408.665 185.867 404.527C182.076 402.275 178.153 400.256 174.118 398.481H174.717L185.268 398.938C192.311 399.28 199.355 399.422 206.398 399.878C206.655 399.878 206.626 399.508 206.398 399.479C199.355 398.995 192.311 398.225 185.268 397.626L175.03 396.713L169.812 396.343L168.472 396.2C166.647 395.516 164.793 394.86 162.94 394.289C154.194 391.288 144.789 390.765 135.764 392.778C127.694 394.86 119.653 400.135 117.571 408.633C117.564 408.695 117.578 408.758 117.611 408.812C117.643 408.865 117.693 408.907 117.751 408.929C117.81 408.952 117.874 408.955 117.934 408.938C117.994 408.92 118.047 408.883 118.084 408.833C121.078 401.732 128.977 398.168 136.078 396.685C140.874 395.763 145.792 395.667 150.621 396.4C150.957 398.592 151.492 400.749 152.218 402.844C153.13 405.838 153.986 408.861 154.898 411.855C156.723 417.844 158.719 423.775 160.601 429.763C160.601 429.816 160.622 429.867 160.66 429.904C160.697 429.942 160.748 429.963 160.801 429.963C160.854 429.963 160.905 429.942 160.942 429.904C160.98 429.867 161.001 429.816 161.001 429.763C159.489 423.775 158.149 417.73 156.809 411.741C156.096 408.89 155.354 405.867 154.613 402.93C154.204 400.875 153.671 398.846 153.016 396.856C155.815 397.367 158.584 398.023 161.314 398.823C166.27 400.29 171.128 402.071 175.857 404.156C176.342 407.179 176.998 410.201 177.711 413.196C178.595 416.96 179.564 420.695 180.762 424.374C180.762 424.602 181.161 424.374 181.104 424.374V423.689C180.391 420.21 179.622 416.731 178.88 413.253C178.281 410.401 177.74 407.549 177.141 404.698C181.104 406.494 185.04 408.462 188.832 410.629C188.832 411.484 189.117 412.397 189.231 413.167C189.46 414.65 189.745 416.019 190.001 417.558C190.6 420.838 191.256 424.117 192.054 427.368C193.498 433.656 195.337 439.846 197.558 445.903C197.532 445.941 197.519 445.986 197.519 446.032C197.519 446.077 197.532 446.122 197.558 446.16L197.758 446.388C197.79 446.412 197.829 446.425 197.869 446.426C197.909 446.428 197.949 446.417 197.983 446.395C198.017 446.374 198.043 446.342 198.059 446.306C198.075 446.269 198.079 446.228 198.071 446.188C196.589 439.858 194.906 433.584 193.509 427.254C192.824 424.089 192.112 420.923 191.484 417.73C191.171 416.133 190.885 414.564 190.572 412.967C190.572 412.511 190.429 412.026 190.344 411.542C202.117 418.444 212.77 427.098 221.939 437.206C222.167 437.463 222.624 437.206 222.424 436.807C219.972 433.613 217.548 430.448 214.782 427.482C213.156 425.771 211.502 424.089 209.791 422.463H210.305C211.826 422.729 213.337 422.957 214.839 423.148C217.69 423.547 220.77 423.832 223.736 424.174C223.622 424.26 223.707 423.86 223.479 423.832Z" fill="#263238"/>
<path d="M200.923 438.29C200.923 437.919 200.923 437.548 200.752 437.206C200.581 436.864 200.438 436.265 200.353 435.809C199.697 432.957 199.127 430.106 198.613 427.254C198.613 427.055 198.271 427.254 198.271 427.254C198.471 431.08 199.3 434.847 200.724 438.404H200.952L200.923 438.29Z" fill="#263238"/>
<path d="M174.09 437.605C174.09 437.605 174.09 437.434 173.89 437.434C173.006 433.67 172.151 429.877 171.352 426.027C170.953 424.031 170.525 422.035 170.155 420.01L169.556 416.788C169.471 415.809 169.241 414.848 168.871 413.937C168.857 413.899 168.831 413.868 168.798 413.845C168.765 413.823 168.726 413.811 168.686 413.811C168.646 413.811 168.607 413.823 168.574 413.845C168.541 413.868 168.515 413.899 168.501 413.937C168.486 415.866 168.755 417.788 169.299 419.64C169.698 421.721 170.097 423.803 170.554 425.885C171.495 430.077 172.55 434.268 173.719 438.403C173.719 438.66 174.175 438.603 174.147 438.403C174.118 438.204 174.118 437.918 174.09 437.605Z" fill="#263238"/>
<path d="M220.542 411.571C214.839 410.744 208.85 409.917 202.976 409.204C202.72 409.204 202.605 409.546 202.976 409.574C208.679 410.458 214.696 411.171 220.571 411.941C220.685 411.97 220.799 411.742 220.542 411.571Z" fill="#263238"/>
<path d="M67.9536 499.628C64.3035 500.74 60.9386 515.026 63.3054 522.44C65.6723 529.854 51.8991 552.924 49.2186 562.363C46.5381 571.801 48.4487 574.482 49.2186 576.278C49.9885 578.075 42.3748 581.297 43.5154 583.065C44.656 584.833 52.5549 585.746 56.2335 585.147C59.9121 584.548 79.2744 593.701 98.38 596.097C130.061 599.946 164.195 590.394 170.696 587.941C172.835 587.143 180.449 589.595 183.386 588.398C186.323 587.2 183.215 581.953 182.901 580.185C182.588 578.417 184.954 572.999 185.325 561.479C185.696 549.958 165.364 525.064 166.191 521.214C167.018 517.364 170.953 507.469 170.668 505.473C170.383 503.477 137.789 514.998 116.145 513.515C94.5019 512.032 73.7708 497.831 67.9536 499.628Z" fill="#455A64"/>
</svg>
