<svg width="414" height="368" viewBox="0 0 414 368" fill="none" xmlns="http://www.w3.org/2000/svg">
<path d="M389.747 146.087C389.747 146.087 320.653 136.42 336.821 53.0396C336.821 53.0396 413.985 70.3773 389.747 146.087Z" fill="#6AAD7D"/>
<path opacity="0.1" d="M389.747 146.087C389.747 146.087 320.653 136.42 336.821 53.0396C336.821 53.0396 413.985 70.3773 389.747 146.087Z" fill="black"/>
<path d="M386.239 128.692C384.883 124.471 383.312 120.321 381.534 116.26L381.363 114.691C381.363 113.55 381.163 112.381 381.078 111.241C380.878 108.76 380.736 106.25 380.593 103.77C380.279 98.7792 379.966 93.8175 379.88 88.8272C379.88 88.7743 379.859 88.7235 379.822 88.6861C379.784 88.6486 379.733 88.6276 379.681 88.6276C379.628 88.6276 379.577 88.6486 379.539 88.6861C379.502 88.7235 379.481 88.7743 379.481 88.8272C379.481 93.8175 379.481 98.8078 379.481 103.798C379.481 106.279 379.738 108.788 379.88 111.269C379.88 111.811 379.88 112.381 379.88 112.923C375.994 104.627 371.355 96.704 366.021 89.2549C363.655 85.9186 361.145 82.7533 358.465 79.6735C355.784 76.5938 352.762 73.5141 349.91 70.4059C349.739 70.2062 349.425 70.4059 349.625 70.691C354.575 76.1916 359.031 82.1173 362.942 88.3994C365.023 91.5647 367.019 94.844 368.902 98.1519L368.246 97.8952L365.793 96.8972L360.09 94.7585C356.383 93.3897 352.676 92.0495 348.997 90.6237C348.769 90.6237 348.598 90.9374 348.826 91.0229C352.505 92.4772 356.126 94.0456 359.776 95.614L365.109 97.8952C366.021 98.2945 366.905 98.6651 367.961 99.0073C368.537 99.3052 369.151 99.5258 369.786 99.6632C371.183 102.173 372.637 104.682 373.835 107.248C377.088 113.723 379.944 120.389 382.39 127.21L382.874 128.664C381.053 127.561 379.146 126.608 377.171 125.812L370.014 122.562C365.166 120.337 360.347 118.056 355.756 115.433C355.499 115.433 355.299 115.689 355.556 115.803C360.29 118.398 364.938 121.164 369.814 123.759C372.181 125.042 374.576 126.297 377 127.466C379.019 128.665 381.212 129.541 383.502 130.061C385.806 136.382 387.329 142.961 388.036 149.652C388.806 159.09 388.72 168.586 388.92 178.168C388.92 178.339 389.176 178.31 389.176 178.168C389.861 169.613 390.26 160.915 390.288 152.332C390.225 144.285 388.857 136.302 386.239 128.692Z" fill="#263238"/>
<path d="M375.603 79.6447C374.934 84.519 374.705 89.4436 374.919 94.359H375.147C375.403 89.4827 375.46 84.6064 376.031 79.7587C376.059 79.502 375.631 79.388 375.603 79.6447Z" fill="#263238"/>
<path d="M355.87 83.8089C352.781 82.6207 349.804 81.1607 346.973 79.4459C346.745 79.2748 346.545 79.6741 346.773 79.8167C349.543 81.6725 352.569 83.1135 355.756 84.0941C355.927 84.1511 356.041 83.8089 355.87 83.8089Z" fill="#263238"/>
<path d="M391.943 278.458C391.943 270.844 391.743 263.202 391.657 255.645C391.515 230.323 391.315 204.973 390.859 179.622C390.498 159.49 390.022 139.367 389.433 119.254C389.432 119.199 389.416 119.146 389.385 119.1C389.355 119.055 389.312 119.019 389.262 118.997V102.515C389.262 102.515 389.091 102.315 388.948 102.315C388.806 102.315 388.606 102.315 388.606 102.515C388.606 108.018 388.606 113.522 388.606 119.026C388.606 119.026 388.464 119.168 388.464 119.282C387.437 155.098 386.525 190.914 386.325 226.73C386.325 234.002 386.325 241.302 386.325 248.573C386.097 271.918 386.011 295.273 386.068 318.637V329.787C386.068 351.174 386.296 458.108 386.296 479.438C386.296 480.579 387.58 481.149 388.948 481.206C390.317 481.263 392.142 480.665 392.142 479.353C392.142 455.77 392.313 346.668 392.285 323.114C392 308.172 392.057 293.315 391.943 278.458Z" fill="#263238"/>
<path d="M363.084 255.275C363.084 255.275 329.863 230.665 298.353 247.29C266.843 263.915 261.881 328.047 261.881 328.047C261.881 328.047 308.163 334.663 337.334 306.917C365.423 280.169 363.084 255.275 363.084 255.275Z" fill="#6AAD7D"/>
<path d="M372.152 256.815C366.043 254.398 359.431 253.526 352.904 254.277C351.555 254.054 350.193 253.93 348.826 253.906L344.149 253.536C340.927 253.279 337.705 253.108 334.454 252.851C327.924 252.367 321.337 251.967 314.807 251.312C314.578 251.312 314.521 251.682 314.807 251.711C321.28 252.538 327.724 253.479 334.226 254.135C337.562 254.477 340.899 254.819 344.235 255.047L346.687 255.275C345.689 255.503 344.691 255.732 343.836 256.017C338.621 257.543 333.576 259.597 328.779 262.148C326.184 262.604 323.561 263.345 320.995 263.944C316.888 264.914 312.81 265.969 308.704 267.052C300.634 269.163 292.678 271.529 284.665 273.868C284.409 273.868 284.665 274.324 284.665 274.267C292.678 272.299 300.72 270.503 308.733 268.564C312.611 267.651 316.517 266.739 320.396 265.712L323.447 264.999C314.529 270.536 306.557 277.468 299.836 285.531C293.367 293.483 287.863 302.175 283.439 311.423C283.439 311.651 283.667 311.879 283.781 311.651C289.274 302.133 295.984 293.371 303.742 285.588L303.315 286.899C302.687 288.867 302.06 290.806 301.461 292.774C300.235 296.68 298.98 300.587 297.811 304.522C297.811 304.779 298.125 304.864 298.21 304.522C299.636 300.73 301.062 296.908 302.288 293.116L304.256 287.413C304.598 286.443 304.94 285.445 305.254 284.561C305.254 284.276 305.482 283.962 305.567 283.677C309.274 280.071 313.218 276.718 317.373 273.64C322.846 269.61 328.758 266.214 334.996 263.516L334.654 265.227C334.34 266.739 333.998 268.25 333.684 269.761C333.028 272.927 332.429 276.063 331.802 279.229C330.547 285.645 329.777 292.146 328.58 298.591C328.58 298.848 328.922 298.962 328.979 298.591C330.462 292.118 332.401 285.759 333.827 279.257C334.568 276.035 335.281 272.784 335.965 269.533C336.279 268.022 336.564 266.511 336.878 264.971C337.049 264.144 337.249 263.288 337.363 262.433C337.961 262.205 338.532 261.919 339.159 261.691C347.856 258.469 357.495 256.131 366.791 257.899C371.181 258.72 375.299 260.613 378.781 263.408C382.264 266.204 385.002 269.816 386.752 273.925C387.066 274.666 388.206 274.21 388.035 273.468C386.867 269.648 384.822 266.153 382.065 263.262C379.307 260.37 375.913 258.163 372.152 256.815Z" fill="#263238"/>
<path d="M321.308 284.19L318.457 296.794C317.418 300.836 316.647 304.942 316.147 309.085C316.147 309.256 316.375 309.256 316.404 309.085C317.64 305.03 318.592 300.895 319.255 296.709C320.082 292.574 320.881 288.411 321.708 284.247C321.711 284.221 321.71 284.194 321.703 284.169C321.697 284.143 321.685 284.119 321.669 284.098C321.653 284.077 321.633 284.059 321.611 284.045C321.588 284.032 321.563 284.023 321.536 284.019C321.51 284.015 321.484 284.017 321.458 284.023C321.432 284.03 321.408 284.042 321.387 284.057C321.366 284.073 321.348 284.093 321.334 284.116C321.321 284.139 321.312 284.164 321.308 284.19Z" fill="#263238"/>
<path d="M289.171 294.826C284.922 296.964 280.844 299.417 276.424 301.156C276.388 301.16 276.354 301.171 276.323 301.191C276.293 301.21 276.268 301.236 276.249 301.267C276.231 301.298 276.22 301.333 276.218 301.369C276.215 301.404 276.222 301.44 276.236 301.473C276.25 301.506 276.272 301.536 276.299 301.559C276.327 301.582 276.359 301.598 276.395 301.606C276.43 301.614 276.466 301.614 276.501 301.605C276.536 301.596 276.568 301.579 276.595 301.556C280.844 299.417 285.15 297.535 289.256 294.997C289.37 294.968 289.256 294.826 289.171 294.826Z" fill="#263238"/>
<path d="M370.555 210.077C370.555 210.077 329.977 212.672 311.071 185.895C292.165 159.119 296.414 120.879 296.414 120.879C296.414 120.879 339.188 126.069 356.012 145.289C372.837 164.508 370.555 210.077 370.555 210.077Z" fill="#6AAD7D"/>
<path d="M389.604 250.141C388.178 245.778 386.439 241.586 384.813 237.252C383.188 232.917 381.534 229.096 379.766 225.076C376.136 216.889 372.072 208.903 367.59 201.151C364.738 196.217 361.658 191.427 358.493 186.693C358.493 185.98 358.265 185.267 358.179 184.554C357.98 183.3 357.809 182.016 357.609 180.762C357.21 178.195 356.754 175.629 356.326 173.062C355.385 167.359 354.244 161.884 353.332 156.295C353.332 156.01 352.875 156.038 352.904 156.295C353.731 161.827 354.301 167.416 355.071 172.948C355.442 175.8 355.812 178.395 356.212 181.132C356.383 182.102 356.525 183.1 356.668 183.984C350.513 174.925 343.849 166.223 336.707 157.92C335.737 156.808 334.739 155.725 333.855 154.613C333.855 154.299 333.599 154.014 333.485 153.672C333.37 153.329 332.886 152.132 332.601 151.362L330.833 146.514C329.692 143.349 328.694 140.126 327.81 136.876C327.81 136.591 327.354 136.733 327.411 136.876C328.238 140.212 329.093 143.52 330.063 146.828C330.547 148.425 331.061 149.993 331.631 151.533L331.916 152.331C326.726 146.628 321.308 141.21 315.833 135.821C315.662 135.65 315.377 135.821 315.548 136.134C326.042 147.116 335.662 158.9 344.321 171.38C343.337 171.07 342.338 170.813 341.326 170.61C338.19 170.011 335.053 169.555 331.888 169.156C325.272 168.329 318.656 167.473 312.069 166.447C312.043 166.447 312.017 166.452 311.993 166.462C311.969 166.472 311.946 166.487 311.928 166.505C311.909 166.524 311.895 166.546 311.885 166.57C311.875 166.594 311.87 166.62 311.87 166.646C311.87 166.673 311.875 166.699 311.885 166.723C311.895 166.747 311.909 166.769 311.928 166.787C311.946 166.806 311.969 166.821 311.993 166.831C312.017 166.841 312.043 166.846 312.069 166.846C318.343 168.101 324.588 169.498 330.833 170.952C333.684 171.637 336.735 172.207 339.73 172.777C342.148 173.305 344.53 173.991 346.858 174.83C347.486 175.772 348.17 176.684 348.826 177.682C351.82 182.017 354.672 186.436 357.381 190.913L353.246 190.086C350.109 189.488 346.944 188.917 343.807 188.404C337.619 187.377 331.403 186.322 325.3 184.925C325.248 184.925 325.197 184.946 325.159 184.984C325.122 185.021 325.101 185.072 325.101 185.125C325.101 185.178 325.122 185.228 325.159 185.266C325.197 185.303 325.248 185.324 325.3 185.324C331.517 186.779 337.676 188.49 343.836 190.115C346.687 190.913 349.796 191.655 352.79 192.311L357.324 193.28C357.92 193.447 358.531 193.552 359.149 193.594C365.08 203.204 370.555 213.07 375.802 223.108C378.064 227.537 380.251 231.995 382.361 236.482C384.528 241.073 386.382 245.778 388.378 250.483C388.463 251.538 389.946 251.168 389.604 250.141Z" fill="#263238"/>
<path d="M348.057 156.81C347.287 152.96 346.46 149.082 345.604 145.232C345.604 144.976 345.148 145.09 345.205 145.232C345.975 149.053 346.716 152.846 347.401 156.639C347.969 160.479 348.74 164.286 349.71 168.045C349.425 164.266 348.872 160.511 348.057 156.81Z" fill="#263238"/>
<path d="M324.388 155.696C322.53 154.784 320.626 153.965 318.685 153.244L315.605 152.018L314.037 151.391C313.434 151.227 312.858 150.978 312.326 150.649C312.012 150.421 311.813 150.963 312.126 151.02C312.732 151.176 313.316 151.406 313.866 151.704L315.406 152.417L318.257 153.729C320.205 154.635 322.205 155.426 324.246 156.096C324.291 156.094 324.335 156.079 324.372 156.052C324.409 156.025 324.437 155.987 324.452 155.944C324.468 155.901 324.47 155.855 324.458 155.811C324.447 155.766 324.423 155.727 324.388 155.696Z" fill="#263238"/>
<path d="M412.131 178.139C412.131 178.139 436.712 132.256 474.097 125.127C511.481 117.998 534.351 156.495 534.351 156.495C534.351 156.495 507.09 191.313 472.785 197.387C438.48 203.461 412.131 178.139 412.131 178.139Z" fill="#6AAD7D"/>
<path d="M499.134 145.716C489.398 144.404 479.522 144.52 469.82 146.058C470.39 145.745 470.932 145.431 471.502 145.174L479.772 140.897C485.475 138.045 491.321 134.737 497.337 132.342C497.387 132.319 497.425 132.278 497.443 132.227C497.462 132.177 497.46 132.12 497.437 132.071C497.415 132.022 497.373 131.984 497.322 131.965C497.272 131.946 497.216 131.949 497.166 131.971C491.321 134.68 485.247 136.962 479.401 139.671C476.549 141.011 473.698 142.522 470.704 143.948C468.879 144.918 466.825 145.83 465 146.999C456.782 148.66 448.797 151.312 441.218 154.898L445.895 149.822C449.374 146.001 452.824 142.009 456.645 138.416C456.845 138.216 456.645 137.931 456.332 138.102C452.425 141.667 448.29 144.946 444.497 148.653C442.644 150.45 440.905 152.303 439.194 154.356C438.338 155.297 437.454 156.295 436.656 157.208C423.822 164.086 412.671 173.721 404.003 185.421C395.335 197.121 389.366 210.596 386.525 224.876C386.525 225.133 386.838 225.276 386.924 225.019C392.188 207.519 401.621 191.559 414.413 178.509C428.158 164.477 445.471 154.459 464.487 149.537C475.794 146.703 487.48 145.693 499.105 146.543C499.16 146.545 499.214 146.536 499.265 146.517C499.316 146.498 499.362 146.469 499.402 146.432C499.442 146.395 499.474 146.35 499.496 146.301C499.519 146.252 499.531 146.198 499.533 146.144C499.535 146.09 499.526 146.035 499.507 145.985C499.488 145.934 499.459 145.887 499.422 145.847C499.385 145.808 499.341 145.776 499.291 145.753C499.242 145.731 499.188 145.718 499.134 145.716Z" fill="#263238"/>
<path d="M407.227 235.912C407.227 235.912 413.786 281.537 448.033 297.392C482.281 313.247 524.028 297.392 524.028 297.392C524.028 297.392 507.603 198.869 407.227 235.912Z" fill="#6AAD7D"/>
<path d="M500.417 267.764C497.252 267.393 494.115 266.852 491.007 266.281L486.387 265.426L483.992 264.941C483.079 264.086 482.167 263.202 481.14 262.375C474.648 256.668 467.63 251.589 460.181 247.204C456.137 244.788 451.947 242.626 447.634 240.731H448.29L459.554 241.244C467.082 241.586 474.582 241.758 482.11 242.242C482.367 242.242 482.367 241.843 482.11 241.815C474.582 241.301 467.082 240.474 459.554 239.818L448.604 238.849L442.9 238.364L441.446 238.193C439.507 237.48 437.539 236.796 435.543 236.168C426.209 232.967 416.171 232.415 406.543 234.572C397.988 236.767 389.433 242.413 387.095 251.51C387.095 251.824 387.523 252.023 387.665 251.71C390.859 244.124 399.3 240.303 406.885 238.735C412.001 237.761 417.246 237.655 422.397 238.421C422.741 240.775 423.324 243.087 424.137 245.322C425.078 248.516 426.019 251.71 426.989 254.932C428.928 261.32 431.066 267.65 432.948 274.066C432.967 274.119 433.006 274.162 433.057 274.186C433.082 274.198 433.11 274.205 433.137 274.207C433.165 274.208 433.193 274.204 433.219 274.195C433.246 274.185 433.27 274.171 433.29 274.152C433.311 274.133 433.328 274.111 433.34 274.086C433.352 274.06 433.358 274.033 433.36 274.005C433.361 273.978 433.357 273.95 433.348 273.924C431.751 267.536 430.496 261.091 428.871 254.704C428.129 251.539 427.331 248.402 426.561 245.265C426.117 243.073 425.536 240.911 424.821 238.792C427.823 239.334 430.793 240.038 433.718 240.902C439.005 242.472 444.187 244.377 449.231 246.605C449.744 249.856 450.457 253.078 451.199 256.272C452.14 260.293 453.195 264.285 454.449 268.192C454.449 268.245 454.47 268.296 454.508 268.333C454.545 268.37 454.596 268.392 454.649 268.392C454.702 268.392 454.753 268.37 454.79 268.333C454.828 268.296 454.849 268.245 454.849 268.192L454.678 267.45C453.908 263.715 453.081 260.008 452.311 256.301C451.683 253.307 451.084 250.284 450.429 247.29C454.699 249.182 458.868 251.295 462.919 253.62C462.919 254.533 463.232 255.474 463.375 256.329C463.603 257.898 463.888 259.438 464.173 261.006C464.829 264.513 465.514 268.021 466.369 271.5C467.914 278.212 469.876 284.822 472.243 291.29C472.223 291.33 472.213 291.374 472.213 291.418C472.213 291.463 472.223 291.507 472.243 291.546L472.443 291.775C472.586 291.946 472.842 291.775 472.785 291.575C471.217 284.817 469.392 278.144 467.909 271.357C467.196 267.964 466.426 264.599 465.77 261.205C465.428 259.494 465.114 257.812 464.772 256.101C464.772 255.616 464.772 255.103 464.544 254.59C469.196 257.287 473.69 260.248 478.004 263.458C485.383 268.995 492.211 275.231 498.392 282.079C498.649 282.336 499.134 282.079 498.906 281.68C496.282 278.23 493.687 274.893 490.75 271.699C489.011 269.874 487.243 268.078 485.418 266.338H485.988C487.585 266.624 489.182 266.852 490.807 267.08C493.972 267.507 497.138 267.821 500.332 268.163C500.588 268.192 500.816 267.793 500.417 267.764Z" fill="#263238"/>
<path d="M389.604 129.12C389.604 129.12 368.644 37.2133 467.424 0C467.509 0 494.856 120.879 389.604 129.12Z" fill="#6AAD7D"/>
<path d="M410.991 76.9928L412.075 76.3369L417.635 73.2287L429.042 66.8126C436.57 62.5923 444.013 58.2578 451.598 54.0945C451.854 53.9519 451.598 53.6098 451.398 53.7238C443.784 57.8587 436.057 61.7368 428.414 65.786L417.008 71.7744L412.36 74.1982C415.668 67.9533 419.175 61.8509 423.053 55.9481C428.215 48.0777 433.861 40.578 439.764 33.1354C439.802 33.0686 439.817 32.9909 439.805 32.9147C439.794 32.8386 439.757 32.7686 439.701 32.7158C439.645 32.6631 439.573 32.6308 439.497 32.6241C439.42 32.6174 439.343 32.6368 439.279 32.6791C430.612 41.0948 422.956 50.4925 416.466 60.6817C416.466 60.3395 416.466 60.0258 416.466 59.7121C416.466 57.4308 416.637 55.1496 416.666 52.8399C416.666 48.3629 416.523 43.8859 416.666 39.3803C416.666 39.1237 416.238 39.1237 416.238 39.3803C416.038 43.8003 415.525 48.1917 415.268 52.6117C415.268 54.8074 415.04 57.0032 414.983 59.2274C414.983 60.3965 414.841 61.7653 414.983 63.0771C412.959 66.2994 410.991 69.5786 409.28 72.915C405.963 78.8999 403.011 85.0802 400.44 91.4219C400.44 89.1406 400.212 86.8593 400.07 84.578C399.784 79.5307 399.157 74.5119 398.957 69.4931C398.941 69.4495 398.912 69.4118 398.874 69.3852C398.836 69.3586 398.79 69.3443 398.743 69.3443C398.697 69.3443 398.652 69.3586 398.613 69.3852C398.575 69.4118 398.546 69.4495 398.53 69.4931C398.53 74.5405 398.387 79.5592 398.53 84.6065C398.53 87.1159 398.672 89.6254 398.843 92.1348L399.014 94.9864C395.869 103.198 393.38 111.646 391.572 120.251C389.863 129.43 388.635 138.691 387.893 147.997C388.955 139.616 390.71 131.337 393.14 123.246C394.366 118.911 395.649 114.691 397.047 110.299C401.153 108.36 405.088 105.965 409.052 103.769L421.456 96.9824C429.698 92.4484 437.91 87.8573 446.408 83.8651C446.665 83.8651 446.408 83.4089 446.208 83.4945C437.654 87.4011 428.899 91.1081 420.544 95.357C416.324 97.4672 412.189 99.7485 408.083 102.058C404.661 103.969 401.125 105.908 397.845 108.132C398.815 105.281 399.813 102.429 400.896 99.5774C403.879 91.8839 407.248 84.346 410.991 76.9928Z" fill="#263238"/>
<path d="M402.664 55.9764C402.664 55.7198 402.237 55.7198 402.265 55.9764C402.607 61.2234 402.779 66.4704 403.349 71.7174C403.349 71.7779 403.373 71.8358 403.416 71.8786C403.459 71.9214 403.517 71.9454 403.577 71.9454C403.638 71.9454 403.696 71.9214 403.738 71.8786C403.781 71.8358 403.805 71.7779 403.805 71.7174C403.634 66.4419 403.064 61.2234 402.664 55.9764Z" fill="#263238"/>
<path d="M87.8769 425.486C87.8769 420.04 87.6772 414.565 87.5917 409.09C87.5917 390.953 87.278 372.817 86.8503 354.681C86.5081 340.271 86.0708 325.871 85.5385 311.48C85.5263 311.439 85.5043 311.403 85.4744 311.373C85.4446 311.343 85.4078 311.321 85.3674 311.309V299.503C85.3674 299.503 85.2249 299.36 85.0538 299.36C84.8827 299.36 84.7401 299.36 84.7401 299.503V311.337C84.6998 311.344 84.6633 311.365 84.6371 311.396C84.611 311.428 84.5969 311.467 84.5975 311.508C83.6279 337.172 82.801 362.837 82.6014 388.501C82.6014 393.72 82.6014 398.938 82.6014 404.156C82.3732 420.867 82.2972 437.577 82.3732 454.287C82.3732 456.939 82.3732 459.62 82.3732 462.272C82.3732 477.556 82.5729 554.064 82.5729 569.349C82.5729 570.176 83.7705 570.604 85.0538 570.632C86.337 570.661 87.9054 570.233 87.9054 569.292C87.9054 552.439 88.048 474.363 88.048 457.481C87.9339 446.759 87.9909 436.123 87.8769 425.486Z" fill="#263238"/>
<path d="M60.844 326.85C60.844 326.85 29.7331 303.78 0.21912 319.35C-29.2949 334.92 -34 394.974 -34 394.974C-34 394.974 9.34422 401.191 36.6625 375.184C63.0397 350.147 60.844 326.85 60.844 326.85Z" fill="#6AAD7D"/>
<path d="M69.3416 328.276C63.622 326.011 57.4302 325.197 51.3195 325.909C50.0573 325.687 48.7798 325.563 47.4984 325.538L43.107 325.225C40.0843 324.968 37.0616 324.797 34.0389 324.569C27.908 324.113 21.7485 323.742 15.6176 323.115C15.3895 323.115 15.361 323.485 15.6176 323.514C21.663 324.284 27.7084 325.139 33.7823 325.766C36.919 326.08 40.0558 326.394 43.1925 326.622L45.4453 326.85C44.5328 327.05 43.5917 327.278 42.5937 327.534C37.7116 328.938 32.9902 330.849 28.5068 333.238C26.0544 333.665 23.6306 334.35 21.2067 334.92C17.3571 335.833 13.5359 336.831 9.80036 337.772C2.24364 339.739 -5.22751 341.963 -12.7272 344.159C-12.9838 344.159 -12.8698 344.587 -12.7272 344.53C-5.25603 342.705 2.30067 341.022 9.80036 339.226C13.4504 338.371 17.1004 337.515 20.7505 336.602L23.6021 335.947C15.243 341.125 7.77139 347.615 1.47372 355.166C-4.59383 362.607 -9.75353 370.744 -13.8964 379.405C-13.8964 379.633 -13.6967 379.861 -13.5542 379.633C-8.45154 370.718 -2.20069 362.511 5.03821 355.223C5.03821 355.623 4.78157 356.05 4.63899 356.45C4.06867 358.275 3.49835 360.128 2.89952 361.953C1.75888 365.603 0.589718 369.282 -0.493887 372.96C-0.493887 373.217 -0.208714 373.274 -0.123166 372.96C1.18857 369.424 2.44326 365.831 3.69796 362.267L5.52297 357.02C5.86517 356.107 6.15033 355.195 6.464 354.168C6.464 353.883 6.66362 353.626 6.77768 353.341C10.234 349.953 13.9214 346.809 17.8134 343.931C22.9363 340.154 28.4762 336.977 34.3241 334.464C34.3241 335.006 34.1245 335.547 34.0104 336.061C33.6967 337.486 33.383 338.912 33.0979 340.31C32.4705 343.161 31.9002 346.212 31.3299 349.149C30.1607 355.195 29.4478 361.269 28.3072 367.314C28.322 367.351 28.3476 367.383 28.3806 367.405C28.4137 367.428 28.4527 367.44 28.4926 367.44C28.5325 367.44 28.5714 367.428 28.6045 367.405C28.6375 367.383 28.6631 367.351 28.6779 367.314C30.0752 361.269 31.8717 355.309 33.2405 349.235C33.8963 346.184 34.5807 343.161 35.2366 340.11L36.092 335.861C36.2346 335.063 36.4342 334.264 36.5198 333.466C37.0901 333.238 37.6319 332.981 38.2022 332.781C46.3863 329.759 55.3118 327.563 64.0947 329.217C68.2128 329.987 72.0771 331.762 75.3452 334.383C78.6132 337.005 81.184 340.392 82.8296 344.245C83.1148 344.901 84.1699 344.473 84.0273 343.789C82.9466 340.243 81.0578 336.996 78.5095 334.304C75.9612 331.613 72.8229 329.549 69.3416 328.276Z" fill="#263238"/>
<path d="M21.7485 353.911C20.893 357.846 20.0091 361.782 19.1251 365.745C18.1516 369.495 17.4276 373.306 16.9579 377.152C16.9579 377.294 17.186 377.294 17.2145 377.152C18.3538 373.355 19.2397 369.488 19.8665 365.574C20.6364 361.667 21.3778 357.789 22.1477 353.883C22.1439 353.83 22.1193 353.78 22.0792 353.746C22.0391 353.711 21.9868 353.694 21.9339 353.697C21.8809 353.701 21.8316 353.726 21.7969 353.766C21.7621 353.806 21.7447 353.858 21.7485 353.911Z" fill="#263238"/>
<path d="M85.3961 291.975C85.3961 291.975 121.184 278.886 127.286 248.83C133.388 218.774 115.366 187.549 115.366 187.549C115.366 187.549 80.748 208.081 73.4765 230.951C66.2049 253.82 85.3961 291.975 85.3961 291.975Z" fill="#6AAD7D"/>
<path d="M84.1418 333.436C83.714 329.187 83.5999 324.881 83.4003 320.575C83.2007 316.27 83.1152 312.363 83.1437 308.257C83.1764 299.863 83.6523 291.477 84.5695 283.134C85.1683 277.83 85.9953 272.583 86.9363 267.336C86.7082 266.68 86.5656 266.025 86.3945 265.369C86.0808 264.2 85.7386 263.059 85.4535 261.918C84.8261 259.551 84.2558 257.185 83.657 254.818C82.3453 249.656 81.2331 244.466 79.8644 239.305C79.8644 239.077 80.178 238.906 80.2351 239.305C81.6323 244.352 83.2578 249.343 84.6836 254.39C85.368 256.871 86.1094 259.352 86.7652 261.833C86.9934 262.745 87.25 263.629 87.4781 264.542C89.3802 254.438 91.8556 244.451 94.8922 234.628C95.2915 233.317 95.7478 231.976 96.1755 230.665C96.1755 230.351 96.1755 230.037 96.1755 229.724C96.1755 228.954 96.1755 228.184 96.1755 227.414C96.1755 225.788 95.9759 224.192 95.8618 222.595C95.6337 219.429 95.2915 216.293 94.8067 213.184C94.8067 213.132 94.8277 213.081 94.8652 213.043C94.9026 213.006 94.9534 212.985 95.0063 212.985C95.0593 212.985 95.11 213.006 95.1475 213.043C95.1849 213.081 95.2059 213.132 95.2059 213.184C95.7477 216.35 96.261 219.515 96.6603 222.709C96.8599 224.249 97.0024 225.788 97.1165 227.357C97.1165 227.614 97.1165 227.87 97.1165 228.127C99.4263 221.311 102.021 214.61 104.673 207.938C104.673 207.681 105.129 207.937 105.044 208.08C100.174 221.448 96.3602 235.178 93.6376 249.143C94.3683 248.495 95.1398 247.895 95.9474 247.347C98.3997 245.664 100.938 244.096 103.476 242.556C108.837 239.334 114.169 236.14 119.444 232.775C119.464 232.752 119.489 232.733 119.516 232.721C119.544 232.709 119.574 232.703 119.604 232.704C119.634 232.706 119.664 232.714 119.691 232.728C119.717 232.742 119.74 232.762 119.758 232.787C119.776 232.811 119.788 232.839 119.793 232.869C119.799 232.899 119.797 232.929 119.789 232.958C119.781 232.987 119.766 233.014 119.746 233.037C119.726 233.059 119.701 233.077 119.673 233.089C114.739 236.511 109.949 240.075 105.129 243.668C102.848 245.35 100.538 246.947 98.2001 248.573C96.3357 249.938 94.555 251.414 92.8676 252.993C92.6395 254.048 92.4114 255.103 92.2118 256.158C91.2993 261.006 90.5008 265.882 89.7879 270.758L93.0387 268.505C95.4911 266.794 97.972 265.112 100.481 263.487C105.415 260.293 110.319 257.042 115.053 253.534C115.253 253.363 115.481 253.677 115.281 253.848C110.519 257.441 105.871 261.205 101.223 264.941C98.97 266.737 96.6603 268.477 94.3505 270.188L90.843 272.726C90.3875 273.083 89.9008 273.397 89.3887 273.667C87.9344 284.161 86.8508 294.712 86.2234 305.262C85.9383 309.882 85.7672 314.53 85.6531 319.178C85.539 323.826 85.6531 328.703 85.6531 333.436C85.6816 334.206 84.2558 334.434 84.1418 333.436Z" fill="#263238"/>
<path d="M84.6261 237.794C83.8276 234.201 83.0862 230.579 82.3733 226.929C82.3733 226.701 82.687 226.644 82.744 226.929C83.5139 230.465 84.3409 234.03 85.1679 237.566C86.1367 241.056 86.9078 244.597 87.4777 248.174C86.2834 244.785 85.3305 241.317 84.6261 237.794Z" fill="#263238"/>
<path d="M104.445 227.871C105.728 226.36 107.125 225.02 108.522 223.565L110.718 221.37L111.83 220.257C112.278 219.887 112.672 219.455 112.999 218.974C113.199 218.661 113.57 218.974 113.313 219.202C112.855 219.57 112.444 219.991 112.087 220.457L111.032 221.626L108.979 223.879C107.657 225.396 106.238 226.824 104.73 228.156C104.616 228.327 104.445 228.071 104.445 227.871Z" fill="#263238"/>
<path d="M102.192 394.033C102.192 394.033 108.323 436.664 140.403 451.578C172.484 466.492 211.693 451.578 211.693 451.578C211.693 451.578 196.181 359.329 102.192 394.033Z" fill="#6AAD7D"/>
</svg>
